<?xml version="1.0" standalone="no"?>
<!DOCTYPE svg PUBLIC "-//W3C//DTD SVG 20010904//EN"
 "http://www.w3.org/TR/2001/REC-SVG-20010904/DTD/svg10.dtd">
<svg version="1.0" xmlns="http://www.w3.org/2000/svg"
 width="260.000000pt" height="260.000000pt" viewBox="0 0 260.000000 260.000000"
 preserveAspectRatio="xMidYMid meet">
<metadata>
Created by potrace 1.11, written by Peter Selinger 2001-2013
</metadata>
<g transform="translate(0.000000,260.000000) scale(0.100000,-0.100000)"
fill="#000000" stroke="none">
<path d="M1221 2538 c-16 -35 -41 -95 -55 -134 l-27 -71 -62 -7 c-58 -6 -184
-35 -232 -54 -11 -5 -63 -30 -116 -55 -316 -155 -535 -442 -603 -793 -15 -79
-16 -320 -2 -389 22 -101 53 -192 96 -280 53 -111 98 -177 183 -272 l38 -41
-35 -91 c-82 -211 -158 -282 -319 -297 -77 -7 -99 -16 -79 -36 8 -8 47 -12
114 -11 128 2 481 2 566 1 44 -1 66 3 72 12 13 21 2 30 -38 30 -59 0 -109 18
-133 48 -18 23 -20 36 -15 87 6 67 12 101 21 115 3 5 52 -15 108 -44 174 -92
311 -127 500 -130 220 -4 358 27 546 121 63 32 118 59 121 61 8 3 67 -150 74
-192 4 -22 -1 -34 -26 -57 l-32 -28 25 -9 c24 -10 151 -14 486 -16 132 0 186
3 195 12 19 19 -1 30 -67 36 -173 18 -262 102 -373 357 -23 53 -42 102 -42
109 0 7 19 38 41 68 89 118 162 289 193 452 22 115 15 333 -13 443 -84 327
-295 589 -596 740 -77 38 -217 85 -280 94 -22 2 -45 10 -51 16 -6 7 -30 60
-53 118 -68 173 -86 185 -130 87z"/>
</g>
</svg>
