<svg height="167" viewBox="0 0 200 167" width="200" fill="#fff" xmlns="http://www.w3.org/2000/svg"><path d="m197.444444 91.4444444c.222223-.2777777.388889-.6111111.611112-.9444444.166666-.3333333.333333-.6666667.5-1.0555556.111111-.1666666.222222-.3888888.277777-.5555555.055556-.1111111.055556-.2222222.111111-.3333333.166667-.3888889.277778-.7777778.388889-1.1666667.111111-.3333333.166667-.6111111.277778-.9444445.111111-.3888888.111111-.7777777.222222-1.1111111.055556-.3333333.111111-.6666666.111111-.9444444.055556-.3888889 0-.7777778 0-1.1666667 0-.3333333 0-.6111111 0-.9444444 0-.3888889-.111111-.7777778-.166666-1.2222222-.055556-.2777778-.111111-.6111112-.166667-.8888889-.055555-.3888889-.222222-.7777778-.333333-1.1666667-.111111-.2777778-.166667-.6111111-.277778-.8888889-.055556-.1111111-.055556-.2777778-.111111-.3888889-.111111-.2222222-.222222-.4444444-.333333-.6666666-.166667-.2777778-.277778-.6111112-.444445-.8888889-.166667-.3333334-.388889-.6666667-.611111-1-.166667-.2777778-.333333-.5-.555556-.7777778-.277777-.3333333-.555555-.6666667-.833333-.9444445-.111111-.1666666-.222222-.2777777-.388889-.4444444l-68.5-68.38888889c-5.722222-5.72222222-14.944444-5.72222222-20.666666 0-5.722223 5.72222219-5.722223 14.94444449 0 20.66666669l43.5 43.4444444h-135.3333338c-5.05555553 0-9.49999998 2.5555556-12.11111109 6.4444445-1.55555555 2.3333333-2.5 5.1666666-2.5 8.1666666 0 4.0555556 1.66666667 7.6666667 4.27777778 10.3333334 2.66666667 2.6666666 6.27777781 4.2777777 10.33333331 4.2777777h135.3333338l-43.444445 43.4444446c-5.722222 5.722222-5.722222 14.944444 0 20.666667 2.833333 2.833333 6.611111 4.277777 10.333333 4.277777 3.722223 0 7.5-1.444444 10.333334-4.277777l68.388889-68.4444449c.166666-.1666667.277777-.3333333.388889-.4444444.277777-.2777778.555555-.6111111.777777-.8888889.222223-.2777778.388889-.5555556.611111-.8333334z" transform="matrix(-1 0 0 1 200.08 0)"/></svg>