<svg xmlns="http://www.w3.org/2000/svg" fill="#fff" width="200" height="167" viewBox="0 0 200 167">
  <path d="M197.444444,91.4444444 C197.666667,91.1666667 197.833333,90.8333333 198.055556,90.5 C198.222222,90.1666667 198.388889,89.8333333 198.555556,89.4444444 C198.666667,89.2777778 198.777778,89.0555556 198.833333,88.8888889 C198.888889,88.7777778 198.888889,88.6666667 198.944444,88.5555556 C199.111111,88.1666667 199.222222,87.7777778 199.333333,87.3888889 C199.444444,87.0555556 199.5,86.7777778 199.611111,86.4444444 C199.722222,86.0555556 199.722222,85.6666667 199.833333,85.3333333 C199.888889,85 199.944444,84.6666667 199.944444,84.3888889 C200,84 199.944444,83.6111111 199.944444,83.2222222 C199.944444,82.8888889 199.944444,82.6111111 199.944444,82.2777778 C199.944444,81.8888889 199.833333,81.5 199.777778,81.0555556 C199.722222,80.7777778 199.666667,80.4444444 199.611111,80.1666667 C199.555556,79.7777778 199.388889,79.3888889 199.277778,79 C199.166667,78.7222222 199.111111,78.3888889 199,78.1111111 C198.944444,78 198.944444,77.8333333 198.888889,77.7222222 C198.777778,77.5 198.666667,77.2777778 198.555556,77.0555556 C198.388889,76.7777778 198.277778,76.4444444 198.111111,76.1666667 C197.944444,75.8333333 197.722222,75.5 197.5,75.1666667 C197.333333,74.8888889 197.166667,74.6666667 196.944444,74.3888889 C196.666667,74.0555556 196.388889,73.7222222 196.111111,73.4444444 C196,73.2777778 195.888889,73.1666667 195.722222,73 L127.222222,4.61111111 C121.5,-1.11111111 112.277778,-1.11111111 106.555556,4.61111111 C100.833333,10.3333333 100.833333,19.5555556 106.555556,25.2777778 L150.055556,68.7222222 L14.7222222,68.7222222 C9.66666667,68.7222222 5.22222222,71.2777778 2.61111111,75.1666667 C1.05555556,77.5 0.111111111,80.3333333 0.111111111,83.3333333 C0.111111111,87.3888889 1.77777778,91 4.38888889,93.6666667 C7.05555556,96.3333333 10.6666667,97.9444444 14.7222222,97.9444444 L150.055556,97.9444444 L106.611111,141.388889 C100.888889,147.111111 100.888889,156.333333 106.611111,162.055556 C109.444444,164.888889 113.222222,166.333333 116.944444,166.333333 C120.666667,166.333333 124.444444,164.888889 127.277778,162.055556 L195.666667,93.6111111 C195.833333,93.4444444 195.944444,93.2777778 196.055556,93.1666667 C196.333333,92.8888889 196.611111,92.5555556 196.833333,92.2777778 C197.055556,92 197.222222,91.7222222 197.444444,91.4444444 L197.444444,91.4444444 Z" transform="translate(-.08)"/>
</svg>
